<svg width="220" height="45" viewBox="0 0 220 45" fill="none" xmlns="http://www.w3.org/2000/svg">
<path d="M39.0447 0.0993581L58.7479 0.0595703L25.0248 38.4349L16.1738 25.663L39.0447 0.0993581Z" fill="#0E39C1"/>
<path d="M12.2782 17.8896L0 0.0149204L58.8093 0L43.1394 17.8796L12.2782 17.8896Z" fill="url(#paint0_linear)"/>
<path d="M46.4697 25.6682L29.4349 45.0001L16.1738 25.6582L46.4697 25.6682Z" fill="url(#paint1_linear)"/>
<path d="M70.4307 13.125H81.7464C84.0381 13.125 85.9274 13.8064 87.4196 15.1741C88.9117 16.5418 89.6603 18.3074 89.6603 20.4808C89.6603 22.6492 88.9117 24.3949 87.4196 25.7178C85.9274 27.0408 84.033 27.7023 81.7464 27.7023H74.7696V31.87H70.4307V13.125ZM74.7696 16.9894V23.8379H81.5733C82.7089 23.8379 83.6154 23.5444 84.2978 22.9576C84.9802 22.3707 85.3214 21.5451 85.3214 20.4808C85.3214 19.4164 84.9802 18.571 84.2978 17.9393C83.6154 17.3077 82.7089 16.9894 81.5733 16.9894H74.7696Z" fill="#0A193F"/>
<path d="M95.043 13.125H99.3819V31.87H95.043V13.125Z" fill="#0A193F"/>
<path d="M105.279 13.125H109.618V28.0405H122.844V31.87H105.279V13.125Z" fill="#0A193F"/>
<path d="M124.127 13.125H129.092L135.234 23.1217H135.514L141.447 13.125H146.412L137.388 27.195V31.87H133.115V27.195L124.127 13.125Z" fill="#0A193F"/>
<path d="M150.924 13.125H170.882V16.9198H163.07V31.87H158.731V16.9247H150.924V13.125Z" fill="#0A193F"/>
<path d="M176.087 13.125H180.426V31.87H176.087V13.125Z" fill="#0A193F"/>
<path d="M185.88 13.125H190.809L195.841 20.3465H197.053L202.084 13.125H207.014L200.597 22.0076L207.401 31.875H202.37L197.129 24.1462H195.775L190.534 31.875H185.503L192.342 22.1121L185.88 13.125Z" fill="#0A193F"/>
<path d="M215.32 17.9642V14.8259H216.624C217.541 14.8259 217.816 15.2437 217.816 15.7212C217.816 16.119 217.663 16.4025 217.25 16.5318V16.5766C217.607 16.686 217.749 16.9148 217.846 17.3375L217.984 17.9592H217.444L217.306 17.3574C217.235 17.0242 217.103 16.8054 216.609 16.8054H215.85V17.9642H215.32ZM215.855 16.3428H216.593C217.072 16.3428 217.266 16.119 217.266 15.8057C217.266 15.4874 217.072 15.2934 216.593 15.2934H215.855V16.3428Z" fill="#0A193F"/>
<path d="M216.654 19.6601C214.811 19.6601 213.309 18.193 213.309 16.3926C213.309 14.5922 214.811 13.125 216.654 13.125C218.498 13.125 220 14.5922 220 16.3926C220 18.193 218.498 19.6601 216.654 19.6601ZM216.654 13.7168C215.142 13.7168 213.915 14.9204 213.915 16.3975C213.915 17.8747 215.147 19.0733 216.654 19.0733C218.162 19.0733 219.394 17.8697 219.394 16.3975C219.394 14.9254 218.167 13.7168 216.654 13.7168Z" fill="#0A193F"/>
<defs>
<linearGradient id="paint0_linear" x1="0" y1="8.94465" x2="58.8105" y2="8.94465" gradientUnits="userSpaceOnUse">
<stop stop-color="#A6EEE7"/>
<stop offset="0.4832" stop-color="#50ECC2"/>
<stop offset="1" stop-color="#3CCBAB"/>
</linearGradient>
<linearGradient id="paint1_linear" x1="16.1749" y1="35.3288" x2="46.4706" y2="35.3288" gradientUnits="userSpaceOnUse">
<stop stop-color="#87F1FC"/>
<stop offset="0.2557" stop-color="#7FD4FB"/>
<stop offset="0.5295" stop-color="#78BCFB"/>
<stop offset="0.7844" stop-color="#74AEFA"/>
<stop offset="1" stop-color="#73A9FA"/>
</linearGradient>
</defs>
</svg>
